<?xml version="1.0" standalone="no"?>
<!DOCTYPE svg PUBLIC "-//W3C//DTD SVG 20010904//EN"
 "http://www.w3.org/TR/2001/REC-SVG-20010904/DTD/svg10.dtd">
<svg version="1.0" xmlns="http://www.w3.org/2000/svg"
 width="500.000000pt" height="500.000000pt" viewBox="0 0 500.000000 500.000000"
 preserveAspectRatio="xMidYMid meet">

<g transform="translate(0.000000,500.000000) scale(0.100000,-0.100000)"
fill="#000000" stroke="none">
<path d="M0 2500 l0 -2500 2500 0 2500 0 0 2500 0 2500 -2500 0 -2500 0 0
-2500z m4160 125 l0 -1655 -1660 0 -1660 0 0 1655 0 1655 1660 0 1660 0 0
-1655z"/>
<path d="M940 2625 l0 -1555 1560 0 1560 0 0 1555 0 1555 -1560 0 -1560 0 0
-1555z m1910 385 c0 -221 -8 -263 -60 -300 -106 -76 -264 -19 -286 103 l-6 37
64 0 c62 0 64 -1 75 -30 8 -22 18 -30 35 -30 45 0 48 12 48 222 l0 198 65 0
65 0 0 -200z m443 176 c123 -61 112 -245 -18 -289 -5 -2 17 -48 49 -103 32
-54 61 -102 63 -106 2 -5 -29 -8 -70 -8 l-75 0 -56 100 c-31 54 -61 102 -66
105 -6 4 -10 -34 -10 -99 l0 -106 -65 0 -65 0 0 266 0 266 138 -4 c108 -3 145
-7 175 -22z m-780 -741 c114 -30 181 -100 200 -209 20 -118 -33 -220 -141
-273 -53 -26 -68 -28 -194 -31 l-138 -4 0 259 c0 143 3 263 7 266 12 13 209 7
266 -8z m607 -35 l0 -50 -95 0 -95 0 0 -55 0 -54 83 -3 82 -3 3 -47 3 -48 -85
0 -86 0 0 -60 0 -60 95 0 95 0 0 -50 0 -50 -160 0 -160 0 0 265 0 265 160 0
160 0 0 -50z m260 -153 l65 -198 66 198 66 198 68 3 c52 2 66 0 63 -10 -2 -7
-44 -127 -93 -265 l-89 -253 -81 0 -80 0 -89 253 c-49 138 -91 258 -94 265 -3
10 11 12 64 10 l68 -3 66 -198z m-1096 -558 c27 -7 57 -24 77 -45 29 -30 34
-42 34 -84 0 -40 -5 -54 -29 -79 -17 -17 -36 -31 -43 -31 -23 0 -14 -15 18
-29 72 -32 91 -141 35 -200 -39 -41 -87 -51 -245 -51 l-141 0 0 258 c0 142 3
262 7 265 11 11 241 8 287 -4z m346 -204 l0 -215 80 0 80 0 0 -50 0 -50 -145
0 -145 0 0 265 0 265 65 0 65 0 0 -215z m586 195 c87 -43 154 -149 154 -245 0
-60 -30 -135 -71 -180 -58 -63 -113 -87 -200 -87 -157 0 -269 111 -269 266 0
107 60 204 153 247 60 27 176 26 233 -1z m571 9 c51 -19 104 -62 129 -104 13
-23 24 -45 24 -48 0 -4 -33 -7 -73 -7 -65 0 -76 3 -96 24 -45 48 -139 40 -185
-14 -47 -56 -43 -171 7 -218 51 -48 136 -50 182 -5 42 43 34 53 -45 53 l-70 0
0 50 0 50 140 0 140 0 0 -60 c0 -135 -106 -239 -244 -240 -81 0 -129 17 -182
63 -68 60 -89 106 -89 202 0 63 5 89 22 121 25 47 91 110 137 130 37 16 163
18 203 3z"/>
<path d="M3110 3045 l0 -65 48 0 c63 0 92 21 92 65 0 44 -29 65 -92 65 l-48 0
0 -65z"/>
<path d="M2370 2196 l0 -166 53 0 c105 0 162 58 162 167 0 98 -53 154 -155
161 l-60 4 0 -166z"/>
<path d="M2120 1555 l0 -55 59 0 c64 0 91 15 91 51 0 37 -35 59 -95 59 l-55 0
0 -55z"/>
<path d="M2120 1340 l0 -60 63 0 c70 0 97 17 97 58 0 41 -34 62 -100 62 l-60
0 0 -60z"/>
<path d="M3041 1583 c-50 -26 -74 -64 -78 -125 -5 -61 16 -110 59 -142 36 -26
115 -27 153 -2 31 21 65 88 65 131 0 41 -33 110 -62 129 -39 25 -98 29 -137 9z"/>
</g>
</svg>
