{
  "accessors": [
    {
      "bufferView": 2,
      "componentType": 5126,
      "count": 136,
      "max": [
        2.8747999668121338,
        1.638700008392334,
        6.4678997993469238
      ],
      "min": [
        -2.8736000061035156,
        -0.9090999960899353,
        2.5411999225616455
      ],
      "type": "VEC3"
    },
    {
      "bufferView": 2,
      "byteOffset": 1632,
      "componentType": 5126,
      "count": 136,
      "max": [
        0.99228388071060181,
        0.99016636610031128,
        0.93598347902297974
      ],
      "min": [
        -0.99993729591369629,
        -0.24459567666053772,
        -0.053598552942276001
      ],
      "type": "VEC3"
    },
    {
      "bufferView": 1,
      "componentType": 5126,
      "count": 136,
      "max": [
        1,
        0.99919998645782471
      ],
      "min": [
        0,
        0.87699997425079346
      ],
      "type": "VEC2"
    },
    {
      "bufferView": 0,
      "componentType": 5125,
      "count": 198,
      "max": [
        135
      ],
      "min": [
        0
      ],
      "type": "SCALAR"
    },
    {
      "bufferView": 2,
      "byteOffset": 3264,
      "componentType": 5126,
      "count": 100,
      "max": [
        2.8893001079559326,
        0.6413000226020813,
        5.717400074005127
      ],
      "min": [
        -2.8893001079559326,
        -1.0091999769210815,
        2.5413999557495117
      ],
      "type": "VEC3"
    },
    {
      "bufferView": 2,
      "byteOffset": 4464,
      "componentType": 5126,
      "count": 100,
      "max": [
        0.99255383014678955,
        0.26841214299201965,
        0.90778833627700806
      ],
      "min": [
        -0.99255383014678955,
        -0.34100332856178284,
        -0.1219051256775856
      ],
      "type": "VEC3"
    },
    {
      "bufferView": 1,
      "byteOffset": 1088,
      "componentType": 5126,
      "count": 100,
      "max": [
        1,
        0.99919998645782471
      ],
      "min": [
        0,
        0.99919998645782471
      ],
      "type": "VEC2"
    },
    {
      "bufferView": 0,
      "byteOffset": 792,
      "componentType": 5125,
      "count": 144,
      "max": [
        99
      ],
      "min": [
        0
      ],
      "type": "SCALAR"
    },
    {
      "bufferView": 2,
      "byteOffset": 5664,
      "componentType": 5126,
      "count": 1726,
      "max": [
        2.9423000812530518,
        2.9423000812530518,
        9.3492002487182617
      ],
      "min": [
        -2.9423000812530518,
        -2.9423000812530518,
        0.058699999004602432
      ],
      "type": "VEC3"
    },
    {
      "bufferView": 2,
      "byteOffset": 26376,
      "componentType": 5126,
      "count": 1726,
      "max": [
        1,
        1,
        1
      ],
      "min": [
        -1,
        -1,
        -1
      ],
      "type": "VEC3"
    },
    {
      "bufferView": 3,
      "componentType": 5126,
      "count": 1726,
      "max": [
        1,
        1,
        0.99763774871826172,
        1
      ],
      "min": [
        -1,
        -1,
        -0.99736922979354858,
        -1
      ],
      "type": "VEC4"
    },
    {
      "bufferView": 1,
      "byteOffset": 1888,
      "componentType": 5126,
      "count": 1726,
      "max": [
        1,
        0.99919998645782471
      ],
      "min": [
        0,
        0.22429999709129333
      ],
      "type": "VEC2"
    },
    {
      "bufferView": 0,
      "byteOffset": 1368,
      "componentType": 5125,
      "count": 6936,
      "max": [
        1725
      ],
      "min": [
        0
      ],
      "type": "SCALAR"
    },
    {
      "bufferView": 2,
      "byteOffset": 47088,
      "componentType": 5126,
      "count": 174,
      "max": [
        0.84670001268386841,
        1.7360999584197998,
        7.5260000228881836
      ],
      "min": [
        -0.59439998865127563,
        1.2865999937057495,
        6.4451999664306641
      ],
      "type": "VEC3"
    },
    {
      "bufferView": 2,
      "byteOffset": 49176,
      "componentType": 5126,
      "count": 174,
      "max": [
        0.96092706918716431,
        0.9995456337928772,
        0.98943328857421875
      ],
      "min": [
        -0.95779383182525635,
        0.086605377495288849,
        -0.70351523160934448
      ],
      "type": "VEC3"
    },
    {
      "bufferView": 3,
      "byteOffset": 27616,
      "componentType": 5126,
      "count": 174,
      "max": [
        0.99981963634490967,
        0.90879297256469727,
        0.58199560642242432,
        -1
      ],
      "min": [
        0.25055596232414246,
        -0.95382201671600342,
        -0.53094470500946045,
        -1
      ],
      "type": "VEC4"
    },
    {
      "bufferView": 1,
      "byteOffset": 15696,
      "componentType": 5126,
      "count": 174,
      "max": [
        0.72070002555847168,
        0.71390002965927124
      ],
      "min": [
        0.4237000048160553,
        0.64499998092651367
      ],
      "type": "VEC2"
    },
    {
      "bufferView": 0,
      "byteOffset": 29112,
      "componentType": 5125,
      "count": 876,
      "max": [
        173
      ],
      "min": [
        0
      ],
      "type": "SCALAR"
    }
  ],
  "asset": {
    "extras": {
      "author": "OGL (https://sketchfab.com/GaryLim)",
      "license": "CC-BY-4.0 (http://creativecommons.org/licenses/by/4.0/)",
      "source": "https://sketchfab.com/3d-models/bb8-droid-8d4f7dbd7dbd476c81e2a4c9bf0664f8",
      "title": "BB8 Droid"
    },
    "generator": "Sketchfab-7.75.0",
    "version": "2.0"
  },
  "bufferViews": [
    {
      "buffer": 0,
      "byteLength": 32616,
      "byteOffset": 0,
      "name": "floatBufferViews",
      "target": 34963
    },
    {
      "buffer": 0,
      "byteLength": 17088,
      "byteOffset": 32616,
      "byteStride": 8,
      "name": "floatBufferViews",
      "target": 34962
    },
    {
      "buffer": 0,
      "byteLength": 51264,
      "byteOffset": 49704,
      "byteStride": 12,
      "name": "floatBufferViews",
      "target": 34962
    },
    {
      "buffer": 0,
      "byteLength": 30400,
      "byteOffset": 100968,
      "byteStride": 16,
      "name": "floatBufferViews",
      "target": 34962
    }
  ],
  "buffers": [
    {
      "byteLength": 131368,
      "uri": "scene.bin"
    }
  ],
  "images": [
    {
      "uri": "textures/material_2_baseColor.jpeg"
    },
    {
      "uri": "textures/material_2_metallicRoughness.png"
    },
    {
      "uri": "textures/material_2_emissive.jpeg"
    },
    {
      "uri": "textures/material_2_normal.jpeg"
    },
    {
      "uri": "textures/m7_ref_metallicRoughness.png"
    },
    {
      "uri": "textures/m7_ref_emissive.png"
    }
  ],
  "materials": [
    {
      "alphaMode": "BLEND",
      "doubleSided": true,
      "emissiveFactor": [
        0.44895049180009983,
        1,
        1
      ],
      "name": "material",
      "pbrMetallicRoughness": {
        "baseColorFactor": [
          0.016405865709218728,
          0.30185243703229914,
          0.90228009864276937,
          0.46000000000000002
        ],
        "metallicFactor": 1,
        "roughnessFactor": 0.20000000000000001
      }
    },
    {
      "alphaMode": "BLEND",
      "doubleSided": true,
      "emissiveFactor": [
        1,
        0,
        0
      ],
      "name": "material_1",
      "pbrMetallicRoughness": {
        "baseColorFactor": [
          0.71585589315513498,
          0.038861601869440862,
          0.038861601869440862,
          0.65000000000000002
        ],
        "metallicFactor": 0.95999999999999996,
        "roughnessFactor": 0.31
      }
    },
    {
      "doubleSided": true,
      "emissiveFactor": [
        0.10000000000000001,
        0.10000000000000001,
        0.10000000000000001
      ],
      "emissiveTexture": {
        "index": 2,
        "texCoord": 0
      },
      "name": "material_2",
      "normalTexture": {
        "index": 3,
        "scale": 0.20999999999999999,
        "texCoord": 0
      },
      "occlusionTexture": {
        "index": 1,
        "strength": 1,
        "texCoord": 0
      },
      "pbrMetallicRoughness": {
        "baseColorFactor": [
          1,
          1,
          1,
          1
        ],
        "baseColorTexture": {
          "index": 0,
          "texCoord": 0
        },
        "metallicFactor": 0.60999999999999999,
        "metallicRoughnessTexture": {
          "index": 1,
          "texCoord": 0
        },
        "roughnessFactor": 1
      }
    },
    {
      "doubleSided": true,
      "emissiveFactor": [
        1,
        1,
        1
      ],
      "emissiveTexture": {
        "index": 5,
        "texCoord": 0
      },
      "name": "m7_ref",
      "normalTexture": {
        "index": 3,
        "scale": 0.30000000000000004,
        "texCoord": 0
      },
      "occlusionTexture": {
        "index": 4,
        "strength": 1,
        "texCoord": 0
      },
      "pbrMetallicRoughness": {
        "baseColorFactor": [
          1,
          1,
          1,
          1
        ],
        "baseColorTexture": {
          "index": 0,
          "texCoord": 0
        },
        "metallicFactor": 1,
        "metallicRoughnessTexture": {
          "index": 4,
          "texCoord": 0
        },
        "roughnessFactor": 1
      }
    }
  ],
  "meshes": [
    {
      "primitives": [
        {
          "attributes": {
            "NORMAL": 1,
            "POSITION": 0,
            "TEXCOORD_0": 2
          },
          "indices": 3,
          "material": 0,
          "mode": 4
        }
      ]
    },
    {
      "primitives": [
        {
          "attributes": {
            "NORMAL": 5,
            "POSITION": 4,
            "TEXCOORD_0": 6
          },
          "indices": 7,
          "material": 1,
          "mode": 4
        }
      ]
    },
    {
      "primitives": [
        {
          "attributes": {
            "NORMAL": 9,
            "POSITION": 8,
            "TANGENT": 10,
            "TEXCOORD_0": 11
          },
          "indices": 12,
          "material": 2,
          "mode": 4
        }
      ]
    },
    {
      "primitives": [
        {
          "attributes": {
            "NORMAL": 14,
            "POSITION": 13,
            "TANGENT": 15,
            "TEXCOORD_0": 16
          },
          "indices": 17,
          "material": 3,
          "mode": 4
        }
      ]
    }
  ],
  "nodes": [
    {
      "children": [
        1
      ],
      "name": "RootNode (gltf orientation matrix)",
      "rotation": [
        -0.70710678118654746,
        -0,
        -0,
        0.70710678118654757
      ]
    },
    {
      "children": [
        2
      ],
      "name": "RootNode (model correction matrix)"
    },
    {
      "children": [
        3,
        4,
        5,
        6
      ],
      "name": "715486e3f5e3481c88ea169da927e945.obj.cleaner"
    },
    {
      "mesh": 0,
      "name": ""
    },
    {
      "mesh": 1,
      "name": ""
    },
    {
      "mesh": 2,
      "name": ""
    },
    {
      "mesh": 3,
      "name": ""
    }
  ],
  "samplers": [
    {
      "magFilter": 9729,
      "minFilter": 9987,
      "wrapS": 10497,
      "wrapT": 10497
    }
  ],
  "scene": 0,
  "scenes": [
    {
      "name": "OSG_Scene",
      "nodes": [
        0
      ]
    }
  ],
  "textures": [
    {
      "sampler": 0,
      "source": 0
    },
    {
      "sampler": 0,
      "source": 1
    },
    {
      "sampler": 0,
      "source": 2
    },
    {
      "sampler": 0,
      "source": 3
    },
    {
      "sampler": 0,
      "source": 4
    },
    {
      "sampler": 0,
      "source": 5
    }
  ]
}

